<svg xmlns="http://www.w3.org/2000/svg" width="499" height="500" viewBox="0 0 499 500" fill="none"><circle cx="249.535" cy="249.976" r="206.322" stroke="#2FF6D3"></circle><path opacity="0.5" d="M415.425 84.087C438.174 106.836 440.415 145.976 425.393 191.047C410.381 236.086 378.173 286.887 332.309 332.751C286.446 378.615 235.645 410.823 190.606 425.834C145.535 440.856 106.395 438.615 83.6456 415.866C60.8965 393.117 58.6554 353.977 73.6775 308.906C88.689 263.867 120.897 213.066 166.761 167.202C212.624 121.338 263.425 89.1304 308.464 74.1189C353.535 59.0969 392.675 61.3379 415.425 84.087Z" stroke="#2FF6D3"></path><path opacity="0.2" d="M415.424 415.866C392.675 438.615 353.535 440.856 308.464 425.834C263.425 410.823 212.624 378.615 166.761 332.751C120.897 286.887 88.6889 236.086 73.6774 191.047C58.6553 145.976 60.8964 106.836 83.6455 84.087C106.395 61.3379 145.535 59.0968 190.606 74.1189C235.645 89.1304 286.446 121.338 332.309 167.202C378.173 213.066 410.381 263.867 425.393 308.906C440.415 353.977 438.174 393.117 415.424 415.866Z" stroke="#2FF6D3"></path></svg>